<svg width="58" height="57" viewBox="0 0 58 57" fill="none" xmlns="http://www.w3.org/2000/svg">
<g clip-path="url(#clip0_11_4)">
<path d="M13.3582 16.6535C13.3641 16.2996 13.3706 15.9458 13.378 15.5919C13.7089 15.6509 14.0399 15.7106 14.3702 15.7732C15.0208 15.9299 15.2724 14.9577 14.6236 14.7859C14.2162 14.7088 13.808 14.635 13.3995 14.563C13.4482 12.3372 13.5078 10.1114 13.5316 7.88492C13.567 6.21088 13.4943 4.58134 13.6413 2.9044C14.6854 3.26331 15.5087 4.05311 16.3524 4.73221C17.3877 5.59582 18.411 6.56146 19.4841 7.40119C21.1488 8.54014 23.4602 8.41351 25.4011 8.3368C26.4386 8.26806 27.4729 8.1588 28.5068 8.0452C29.232 7.96632 29.9806 7.89288 30.64 7.55821C32.9445 6.22824 33.922 3.57409 35.3765 1.48941C36.5293 -0.526892 36.8701 5.31145 36.9433 5.92108C37.1089 8.14831 37.3971 10.4808 37.8104 12.7059C37.2267 12.924 36.6492 13.1578 36.067 13.3799C35.6545 13.5373 35.672 14.173 36.0827 14.3188C36.5315 14.4432 37.0738 14.0217 37.5171 13.906C37.674 13.8455 37.8312 13.7862 37.9889 13.7269C38.0679 14.1932 38.1439 14.6596 38.2156 15.1267C37.9362 15.1299 37.6568 15.1335 37.3774 15.1383C36.8712 15.1495 35.894 15.0583 36.0571 15.8318C36.2725 16.444 37.0548 16.0865 37.5412 16.1542C37.8163 16.1506 38.0913 16.148 38.3663 16.1455C38.6483 18.1184 38.8757 20.0992 39.0754 22.0819C39.1873 23.3771 39.2758 24.6745 39.3878 25.9698C38.7532 26.0262 38.1187 26.0779 37.4893 26.1413C33.9999 26.3891 30.5252 26.8439 27.0245 26.9209C22.3052 27.1319 17.5907 26.9861 12.8784 26.604C12.8919 26.5657 12.9003 26.5255 12.9033 26.4842C13.1867 23.5725 13.3886 20.6546 13.3732 17.7295C13.6533 17.7186 13.935 17.7016 14.214 17.7204C14.8836 17.7884 14.9963 16.7906 14.331 16.7088C14.0074 16.7052 13.6833 16.7074 13.3593 16.711C13.3589 16.6918 13.3589 16.6726 13.3582 16.6535Z" fill="white"/>
<path d="M30.752 15.7168C30.9103 15.5779 31.0764 15.4498 31.249 15.3293C31.7829 14.974 32.348 14.6574 32.9503 14.431C33.4488 14.2569 33.9652 14.1046 34.4966 14.0869C35.3165 14.1003 35.3604 12.7598 33.9213 13.1209C32.8878 13.288 31.9153 13.7092 31.0299 14.2544C30.5768 14.58 29.036 15.4447 29.6676 16.0822C30.1028 16.4682 30.4524 16.0138 30.752 15.7168Z" fill="#466E6E"/>
<path d="M16.875 15.3054C17.2074 15.2783 17.5417 15.2801 17.8745 15.2927C19.1377 15.2848 20.3592 15.7428 21.3218 16.5518C21.8634 16.9462 22.4702 16.1422 21.9388 15.7363C21.5599 15.4414 21.1605 15.1665 20.7323 14.9454C19.9065 14.508 18.9804 14.3101 18.0482 14.2844C17.4492 14.3065 15.8788 14.0062 16.1626 15.033C16.2821 15.313 16.604 15.3792 16.875 15.3054Z" fill="#466E6E"/>
<path d="M20.4956 20.0102C20.4975 20.0323 20.4993 20.0547 20.5011 20.0772C20.5008 20.0844 20.5004 20.0916 20.5004 20.0989C20.504 19.4603 19.5572 19.3955 19.4753 20.0298C19.5868 21.2689 20.6193 22.2921 21.7438 22.7498C23.6518 23.6072 25.3096 22.5833 26.3636 20.9856C27.0742 21.9408 28.2021 22.583 29.3739 22.7972C30.8101 23.0414 32.3549 22.3464 33.1105 21.1134C33.3083 20.8015 33.4444 20.4516 33.5249 20.0931C33.6686 19.4343 32.7089 19.1995 32.5272 19.8413C32.3139 20.926 31.2811 21.7201 30.1928 21.8181C29.4222 21.888 28.6787 21.5826 28.0434 21.1749C27.6579 20.9383 27.3442 20.6094 27.0885 20.2411C27.0285 20.1437 26.9649 20.0403 26.8947 19.9444C27.0527 19.7885 27.1887 19.609 27.2937 19.4433C27.4725 19.1803 27.6364 18.9082 27.7958 18.6332C27.9315 18.3702 28.1356 18.1177 28.1773 17.8188C28.2237 16.8876 26.5502 17.203 25.9394 17.1358C25.2844 17.1824 23.9477 16.9143 23.9693 17.8941C23.9689 18.4201 25.1524 19.8594 25.6293 20.2291C25.5254 20.4006 25.4113 20.5656 25.2906 20.7259C24.8536 21.2794 24.297 21.8091 23.5959 21.998C22.2994 22.2313 20.7769 21.3022 20.4956 20.0102Z" fill="#466E6E"/>
<path d="M48.9501 28.0646C47.3936 32.3219 45.1107 36.2662 42.7943 40.1555C41.7922 41.9569 40.6328 43.6903 39.8436 45.598C39.7182 45.8929 39.6256 46.1957 39.5565 46.5029C38.8218 46.614 38.0801 46.6672 37.3381 46.7077C33.9164 46.9472 30.5104 47.381 27.085 47.5782C23.2643 47.801 19.4305 47.5101 15.6533 46.923C14.9588 46.8198 14.2621 46.729 13.5676 46.6234C13.1466 46.5876 12.7228 46.4389 12.3014 46.4465C11.9149 45.7192 11.3751 45.0709 10.9234 44.3838C10.5295 43.8133 10.1411 43.2391 9.75162 42.6657C7.95922 40.0752 6.29116 37.4019 4.80304 34.6283C3.62468 32.3692 2.38927 30.0993 1.58687 27.6778C1.96613 27.9455 2.41487 28.1706 2.93017 28.3395C9.49452 30.5545 16.5478 30.8388 23.4285 30.8826C29.5452 30.8917 35.6579 30.2726 41.6517 29.0718C44.0907 28.6065 46.5155 27.8826 48.6751 26.6474C49.0101 26.4651 49.3389 26.2364 49.6409 25.9734C49.4321 26.6771 49.1988 27.3739 48.9501 28.0646ZM38.6846 54.321C35.8792 55.1564 32.9106 55.1824 30.0137 55.4621C25.7776 55.7968 21.4705 55.8008 17.3082 54.8619C16.0984 54.6043 14.8224 54.3051 13.5888 53.872C13.339 53.7823 13.0914 53.6879 12.8464 53.5862C12.8464 53.5355 12.8438 53.4852 12.8394 53.436C12.8431 53.0247 12.8533 52.614 12.8632 52.2027C12.8628 51.3948 12.9115 50.5739 12.9096 49.7573C15.8683 50.7634 19.0117 51.1046 22.1178 51.3246C27.871 51.5493 33.6037 50.8687 39.3151 50.2728C39.3466 50.2681 39.3755 50.2609 39.4036 50.2526C39.4483 51.1766 39.521 52.0985 39.5737 53.0221C39.5887 53.2783 39.5631 53.622 39.6706 53.8604C39.3894 54.0913 39.0259 54.2027 38.6846 54.321ZM39.3711 49.2699C39.3162 49.258 39.2563 49.2544 39.1912 49.2613C37.2188 49.5156 35.2333 49.6563 33.2544 49.8503C26.5635 50.5105 19.5833 50.8524 13.1097 48.7497C13.0318 48.7124 12.9499 48.6777 12.8672 48.6509C12.8354 48.2685 12.7824 47.8886 12.6975 47.513C15.4397 47.9367 18.1877 48.3752 20.9606 48.546C26.9354 49.0199 32.8759 47.9798 38.8269 47.6216C39.0193 47.6017 39.2109 47.5778 39.4022 47.5521C39.3568 48.1223 39.362 48.6994 39.3711 49.2699ZM1.89006 23.0736C4.18606 20.5001 8.91595 19.8648 12.3084 19.313C12.3025 19.7038 12.2978 20.0942 12.2927 20.4849C12.2725 20.4863 12.2521 20.4885 12.2309 20.4921C9.72054 20.8033 2.27151 21.461 3.37708 25.257C4.39196 27.0251 8.38821 27.1521 10.2991 27.4213C13.5917 27.6688 16.8861 27.964 20.1893 28.0172C25.3416 28.1228 30.4892 27.8363 35.6126 27.3128C38.0702 27.0989 40.5451 26.973 42.9724 26.5161C44.4546 26.1962 46.1468 25.7918 47.0498 24.4773C47.624 23.7266 47.3625 22.6745 46.6497 22.1119C45.9581 21.5428 45.0317 21.4238 44.1712 21.2888C43.281 21.1687 42.381 21.1307 41.4831 21.1296C41.0922 21.1307 40.7027 21.1416 40.3128 21.1698C40.2192 21.1824 40.123 21.1875 40.0265 21.1929C39.9932 20.8742 39.9584 20.5558 39.9219 20.2374C40.7063 20.1756 41.4956 20.1557 42.2819 20.1589C44.6379 20.2986 47.6503 20.4625 49.5031 22.0486C51.4663 24.2364 47.8599 26.1011 46.0847 26.7585C44.1277 27.5526 42.0548 27.9882 39.9778 28.346C35.0651 29.2918 30.066 29.7393 25.0659 29.8616C19.0552 29.9144 13.0014 29.71 7.10782 28.4492C5.55277 28.0617 2.60249 27.5584 1.60772 26.3124C0.745348 25.3496 1.1374 23.9762 1.89006 23.0736ZM12.8954 26.3627C12.8968 26.3634 12.8979 26.3638 12.8994 26.3641C12.9012 26.3862 12.9034 26.4086 12.9052 26.4307C12.9049 26.4415 12.9041 26.4524 12.9038 26.4633C12.9045 26.4303 12.9027 26.3967 12.8954 26.3627ZM13.3584 16.6534C13.3642 16.2996 13.3708 15.9458 13.3781 15.5919C13.7091 15.6509 14.0401 15.7106 14.3703 15.7732C15.0209 15.9299 15.2726 14.9577 14.6238 14.7858C14.2164 14.7088 13.8082 14.635 13.3997 14.563C13.4483 12.3372 13.508 10.1114 13.5317 7.8849C13.5672 6.21086 13.4944 4.58132 13.6414 2.90439C14.6856 3.26329 15.5088 4.0531 16.3525 4.73219C17.3879 5.59581 18.4112 6.56145 19.4842 7.40118C21.149 8.54012 23.4604 8.41349 25.4012 8.33679C26.4388 8.26805 27.4731 8.15879 28.507 8.04518C29.2322 7.96631 29.9808 7.89286 30.6402 7.5582C32.9446 6.22823 33.9222 3.57408 35.3767 1.4894C36.5294 -0.526906 36.8703 5.31143 36.9434 5.92106C37.1091 8.14829 37.3973 10.4808 37.8106 12.7059C37.2269 12.924 36.6494 13.1578 36.0672 13.3799C35.6546 13.5373 35.6722 14.173 36.0829 14.3188C36.5316 14.4432 37.074 14.0217 37.5173 13.906C37.6741 13.8455 37.8314 13.7862 37.989 13.7269C38.068 14.1932 38.1441 14.6596 38.2158 15.1267C37.9364 15.1299 37.657 15.1335 37.3776 15.1382C36.8714 15.1495 35.8942 15.0583 36.0573 15.8318C36.2727 16.444 37.055 16.0865 37.5414 16.1542C37.8164 16.1506 38.0914 16.148 38.3665 16.1455C38.6484 18.1184 38.8759 20.0992 39.0756 22.0819C39.1875 23.3771 39.276 24.6745 39.3879 25.9698C38.7534 26.0262 38.1189 26.0779 37.4895 26.1412C34.0001 26.3891 30.5254 26.8439 27.0247 26.9209C22.3054 27.1319 17.5909 26.9861 12.8785 26.604C12.8921 26.5656 12.9005 26.5255 12.9034 26.4842C13.1869 23.5725 13.3887 20.6546 13.3734 17.7294C13.6535 17.7186 13.9351 17.7016 14.2142 17.7204C14.8838 17.7884 14.9964 16.7906 14.3312 16.7088C14.0075 16.7052 13.6835 16.7074 13.3595 16.711C13.3591 16.6918 13.3591 16.6726 13.3584 16.6534ZM51.1064 23.1955C51.1042 23.1922 51.1009 23.1901 51.0987 23.1868C51.0863 22.702 50.9301 22.2118 50.5823 21.7411C48.7716 19.4342 44.1979 19.148 41.4199 19.1484C40.8801 19.1651 40.3392 19.181 39.8008 19.2255C39.6728 18.1943 39.5309 17.165 39.3806 16.1368C40.5922 16.1288 41.8042 16.1274 43.0159 16.1328C43.6925 16.1046 43.6665 15.118 42.9928 15.1147C42.2757 15.1104 41.5585 15.1104 40.8413 15.1126C40.3041 15.1151 39.7668 15.1165 39.2292 15.1191C39.1414 14.5358 39.0515 13.9523 38.9608 13.369C40.2982 12.8875 41.6474 12.4327 43.002 12.0007C43.6457 11.8028 43.3545 10.8415 42.7116 11.0231C41.4009 11.4432 40.0967 11.8835 38.8009 12.3466C38.6155 11.1653 38.4294 9.98406 38.2516 8.80206C37.925 6.37367 37.992 3.86424 37.311 1.47239C37.0579 0.545102 36.2274 -0.413663 35.2081 0.186922C34.7045 0.515435 34.4404 1.07369 34.1135 1.55524C33.2442 2.9138 32.5189 4.35231 31.4506 5.57989C30.7174 6.48149 29.8433 6.94242 28.6726 7.00031C26.8908 7.19423 25.1003 7.41927 23.3042 7.35957C20.8985 7.23512 20.3952 6.96413 18.6559 5.37041C17.6428 4.62329 13.7117 0.45393 12.7158 2.37218C12.443 3.50498 12.5615 4.70397 12.5161 5.86209C12.4894 8.70438 12.4393 11.5463 12.3899 14.3882C11.3491 14.2117 10.3064 14.0427 9.26558 13.8665C8.59813 13.7887 8.4822 14.8007 9.14891 14.8785C10.2227 15.0615 11.2979 15.2341 12.3717 15.4168C12.3643 15.8542 12.357 16.292 12.3497 16.7294C11.3067 16.7544 10.2633 16.7891 9.22023 16.7757C8.93935 16.7761 8.71114 17.0232 8.71699 17.2964C8.75101 17.9248 9.48428 17.7837 9.9279 17.7935C10.7296 17.7906 11.5312 17.7768 12.3325 17.7577C12.33 17.9306 12.3274 18.1035 12.3245 18.2765C10.2062 18.6079 8.07113 18.9201 6.02967 19.5891C4.34991 20.1567 2.61017 20.808 1.36927 22.1159C0.546764 22.9726 0.132761 23.9155 0.0932633 24.8135C-0.400827 25.9202 1.21896 29.6254 1.56164 30.4199C3.36867 34.3776 5.50742 38.1881 7.93179 41.8078C8.73089 42.9884 9.52634 44.1707 10.3393 45.3419C10.8261 46.0843 11.4669 46.7764 11.6797 47.656C12.0451 49.4588 11.8073 51.2222 11.8191 53.075C11.8227 53.2732 11.7898 53.5269 11.8117 53.7504C11.8099 53.7559 11.8073 53.7606 11.8059 53.766C11.7265 54.0605 11.9123 54.3261 12.1914 54.4172C15.8241 55.859 19.7761 56.5251 23.6787 56.6553C26.3525 56.7479 29.0241 56.5804 31.6869 56.3521C34.2045 56.1029 36.7832 56.0327 39.1999 55.2222C39.8484 54.9914 40.6252 54.6542 40.8197 53.9353C40.8801 53.7269 40.7923 53.4994 40.6197 53.3778C40.5853 52.5377 40.5107 51.6994 40.4628 50.86C40.4017 49.7945 40.3662 48.7254 40.4247 47.6592C40.4657 46.5438 40.9605 45.5217 41.4692 44.5477C42.0281 43.5166 42.6308 42.509 43.2068 41.4873C45.2969 37.9185 47.4422 34.4018 49.0543 30.5765C49.8915 28.5743 50.6617 26.5244 51.1005 24.3977C51.121 24.0103 51.3262 23.5486 51.1064 23.1955Z" fill="#466E6E"/>
<path d="M50.8178 25.5959C50.8178 25.5959 59.2361 28.4595 56.9303 35.7523C53.2693 47.3267 42.0799 43.0242 41.979 43.6312" stroke="#466E6E" stroke-miterlimit="1.5" stroke-linecap="round" stroke-linejoin="round"/>
<path d="M49.9401 28.3407C49.9401 28.3407 56.1036 29.644 53.746 35.8546C51.5051 41.7593 46.2273 41.1406 43.207 41.0677" stroke="#466E6E" stroke-miterlimit="1.5" stroke-linecap="round" stroke-linejoin="round"/>
</g>
<defs>
<clipPath id="clip0_11_4">
<rect width="58" height="57" fill="white"/>
</clipPath>
</defs>
</svg>
